<?xml version="1.0" encoding="UTF-8"?>
<svg id="Calque_1" xmlns="http://www.w3.org/2000/svg" viewBox="0 0 1190.55 841.89">
  <defs>
    <style>
      .cls-1 {
        fill: #31b3b3;
      }

      .cls-2 {
        fill: #fff;
      }

      .cls-3 {
        fill: #6c5ba2;
      }
    </style>
  </defs>
  <path class="cls-3" d="M783.22,419.88h-2.51c-2.08-.32-7.4-1.46-9.9-3.3-4.25-3.12-6.54-8.32-7.94-13.41-8.69-31.67,8.01-68.63-7.73-66.81-5.33.62-17.39,2.26-45.19,36.72-6.3,7.81-15.57,18.23-31.65,36.4-6.95,7.85-17.94,9.93-29.13,10.4h-15.77c-18.95-.28-38.55-.24-58.35,0h-238.04c-55.22,0-99.99,44.77-99.99,99.99v92.15c0,55.22,44.77,99.99,99.99,99.99h446.22c55.22,0,99.99-44.77,99.99-99.99v-92.15c0-55.22-44.77-99.99-99.99-99.99Z"/>
  <g>
    <path class="cls-3" d="M598.88,370.39c-16.8,0-32.63-3.34-47.48-10.04-14.85-6.69-27.82-15.82-38.89-27.39-11.08-11.56-19.85-25.14-26.29-40.71-6.45-15.58-9.68-32.14-9.68-49.67s3.23-34.02,9.68-49.48c6.45-15.46,15.21-29.03,26.29-40.72,11.08-11.68,24.04-20.87,38.89-27.57,14.85-6.69,30.68-10.04,47.48-10.04s32.62,3.35,47.47,10.04c14.85,6.7,27.76,15.89,38.71,27.57,10.96,11.69,19.66,25.26,26.11,40.72,6.45,15.46,9.68,31.95,9.68,49.48s-3.23,34.09-9.68,49.67c-6.45,15.58-15.16,29.16-26.11,40.71-10.95,11.56-23.86,20.7-38.71,27.39-14.85,6.7-30.68,10.04-47.47,10.04ZM598.88,144.71c-12.91,0-24.96,2.56-36.16,7.67-11.2,5.11-20.94,12.05-29.21,20.82-8.28,8.76-14.85,19.12-19.72,31.04-4.87,11.93-7.3,24.71-7.3,38.34s2.43,26.42,7.3,38.34c4.87,11.93,11.44,22.28,19.72,31.05,8.27,8.76,18.01,15.7,29.21,20.82,11.19,5.11,23.25,7.67,36.16,7.67s24.59-2.56,35.79-7.67c11.19-5.12,20.99-12.05,29.4-20.82,8.4-8.76,14.97-19.11,19.72-31.05,4.75-11.92,7.12-24.71,7.12-38.34s-2.37-26.41-7.12-38.34c-4.75-11.92-11.32-22.28-19.72-31.04-8.4-8.76-18.2-15.7-29.4-20.82-11.2-5.11-23.13-7.67-35.79-7.67Z"/>
    <path class="cls-3" d="M866.02,370.39c-16.8,0-32.63-3.34-47.48-10.04-14.85-6.69-27.82-15.82-38.89-27.39-11.08-11.56-19.85-25.14-26.29-40.71-6.45-15.58-9.68-32.14-9.68-49.67s3.23-34.02,9.68-49.48c6.45-15.46,15.21-29.03,26.29-40.72,11.08-11.68,24.04-20.87,38.89-27.57,14.85-6.69,30.68-10.04,47.48-10.04s32.62,3.35,47.47,10.04c14.85,6.7,27.76,15.89,38.71,27.57,10.96,11.69,19.66,25.26,26.11,40.72,6.45,15.46,9.68,31.95,9.68,49.48s-3.23,34.09-9.68,49.67c-6.45,15.58-15.16,29.16-26.11,40.71-10.95,11.56-23.86,20.7-38.71,27.39-14.85,6.7-30.68,10.04-47.47,10.04ZM866.02,144.71c-12.91,0-24.96,2.56-36.16,7.67-11.2,5.11-20.94,12.05-29.21,20.82-8.28,8.76-14.85,19.12-19.72,31.04-4.87,11.93-7.3,24.71-7.3,38.34s2.43,26.42,7.3,38.34c4.87,11.93,11.44,22.28,19.72,31.05,8.27,8.76,18.01,15.7,29.21,20.82,11.19,5.11,23.25,7.67,36.16,7.67s24.59-2.56,35.79-7.67c11.19-5.12,20.99-12.05,29.4-20.82,8.4-8.76,14.97-19.11,19.72-31.05,4.75-11.92,7.12-24.71,7.12-38.34s-2.37-26.41-7.12-38.34c-4.75-11.92-11.32-22.28-19.72-31.04-8.4-8.76-18.2-15.7-29.4-20.82-11.2-5.11-23.13-7.67-35.79-7.67Z"/>
    <path class="cls-1" d="M432.58,114.77c4.98,0,9.22,1.43,12.74,4.29,3.51,2.87,5.26,6.21,5.26,10.03v222.07c0,3.82-1.75,7.16-5.26,10.03-3.52,2.87-7.76,4.3-12.74,4.3s-9.22-1.43-12.73-4.3c-3.52-2.86-5.27-6.21-5.27-10.03v-126.1h-140.07v126.1c0,3.82-1.76,7.16-5.27,10.03-3.51,2.87-7.76,4.3-12.74,4.3s-9.29-1.43-12.95-4.3c-3.66-2.86-5.49-6.21-5.49-10.03v-222.07c0-3.82,1.83-7.16,5.49-10.03,3.66-2.86,7.97-4.29,12.95-4.29s9.23,1.43,12.74,4.29c3.51,2.87,5.27,6.21,5.27,10.03v55.56h140.07v-55.56c0-3.82,1.75-7.16,5.27-10.03,3.51-2.86,7.75-4.29,12.73-4.29Z"/>
    <circle class="cls-1" cx="598.7" cy="289.79" r="21.01"/>
    <circle class="cls-1" cx="843.14" cy="289.79" r="21.01"/>
  </g>
  <g>
    <path class="cls-2" d="M395.08,502.04c2.82,0,5.21.74,7.17,2.23,1.96,1.49,2.94,3.23,2.94,5.21,0,2.23-.98,4.09-2.94,5.58-1.96,1.49-4.35,2.23-7.17,2.23h-33.85v107.53c0,1.99-.94,3.72-2.82,5.21-1.88,1.49-4.15,2.23-6.82,2.23s-4.9-.74-6.7-2.23c-1.8-1.49-2.7-3.22-2.7-5.21v-107.53h-34.08c-2.67,0-4.93-.74-6.81-2.23-1.88-1.49-2.82-3.35-2.82-5.58,0-1.99.94-3.72,2.82-5.21,1.88-1.49,4.15-2.23,6.81-2.23h86.97Z"/>
    <path class="cls-2" d="M514.17,621.85c.31,1,.47,1.99.47,2.98,0,1.86-.82,3.57-2.47,5.12-1.64,1.55-3.96,2.32-6.94,2.32-1.73,0-3.49-.52-5.29-1.58-1.8-1.05-3.09-2.26-3.88-3.63v.19l-17.95-35.24h-62.82c-1.73,3.6-9.16,19.15-11.36,23.43-2.2,4.28-4.23,8.22-6.11,11.81-.79,1.24-2.08,2.39-3.88,3.44-1.81,1.06-3.49,1.58-5.05,1.58-2.82,0-5.1-.8-6.82-2.42-1.73-1.61-2.58-3.28-2.58-5.02,0-.99.15-1.98.47-2.98l45.83-91.16,12.22-23.63v.19c.78-1.36,2-2.57,3.64-3.63,1.64-1.05,3.49-1.58,5.52-1.58,1.72,0,3.45.53,5.17,1.58,1.72,1.05,2.98,2.26,3.76,3.63v-.19l58.06,114.79ZM470.59,577.39l-23.4-47.44-23.88,47.48,47.28-.03Z"/>
    <path class="cls-2" d="M535.19,632.27c-2.67,0-4.98-.74-6.93-2.23-1.96-1.49-2.94-3.22-2.94-5.21v-115.35c0-1.99.97-3.72,2.94-5.21,1.96-1.49,4.27-2.23,6.93-2.23s4.93.74,6.82,2.23c1.88,1.49,2.82,3.23,2.82,5.21v107.53h55.47c2.82,0,5.21.74,7.17,2.23,1.96,1.49,2.94,3.35,2.94,5.58,0,1.99-.98,3.72-2.94,5.21-1.96,1.49-4.35,2.23-7.17,2.23h-65.11Z"/>
    <path class="cls-2" d="M724.39,619.62c.62.62,1.21,1.43,1.76,2.42.55.99.82,1.92.82,2.79,0,1.99-.98,3.72-2.94,5.21-1.96,1.49-4.27,2.23-6.93,2.23-1.1,0-2.31-.25-3.64-.74-1.33-.49-2.55-1.05-3.64-1.68l-70.04-61.21v56.18c0,1.99-.94,3.72-2.82,5.21-1.88,1.49-4.15,2.23-6.82,2.23s-4.93-.74-6.81-2.23c-1.88-1.49-2.82-3.22-2.82-5.21v-115.35c0-1.99.94-3.72,2.82-5.21,1.88-1.49,4.15-2.23,6.81-2.23s4.94.74,6.82,2.23c1.88,1.49,2.82,3.23,2.82,5.21v56.18c5.32-4.59,10.96-9.49,16.92-14.7,5.95-5.21,11.99-10.48,18.1-15.82,6.11-5.33,12.1-10.6,17.98-15.81,5.87-5.21,11.55-10.17,17.04-14.88,1.09-.62,2.31-1.18,3.64-1.68,1.33-.49,2.55-.74,3.64-.74,2.66,0,4.97.74,6.93,2.23,1.96,1.49,2.94,3.23,2.94,5.21,0,.99-.27,1.95-.82,2.88-.55.93-1.14,1.71-1.76,2.32l-60.4,52.46,60.4,52.47Z"/>
    <path class="cls-2" d="M773.83,619.07c1.93,0,3.57.64,4.91,1.93,1.34,1.29,2.01,2.9,2.01,4.83,0,1.72-.67,3.22-2.01,4.51-1.34,1.29-2.98,1.93-4.91,1.93-1.72,0-3.22-.64-4.51-1.93-1.29-1.29-1.93-2.79-1.93-4.51,0-1.93.64-3.54,1.93-4.83,1.29-1.29,2.79-1.93,4.51-1.93Z"/>
    <path class="cls-2" d="M790.27,619.07c1.93,0,3.57.64,4.91,1.93,1.34,1.29,2.01,2.9,2.01,4.83,0,1.72-.67,3.22-2.01,4.51-1.34,1.29-2.98,1.93-4.91,1.93-1.72,0-3.22-.64-4.51-1.93-1.29-1.29-1.93-2.79-1.93-4.51,0-1.93.64-3.54,1.93-4.83,1.29-1.29,2.79-1.93,4.51-1.93Z"/>
    <path class="cls-2" d="M806.44,619.07c1.93,0,3.57.64,4.91,1.93,1.34,1.29,2.01,2.9,2.01,4.83,0,1.72-.67,3.22-2.01,4.51-1.34,1.29-2.98,1.93-4.91,1.93-1.72,0-3.22-.64-4.51-1.93-1.29-1.29-1.93-2.79-1.93-4.51,0-1.93.64-3.54,1.93-4.83,1.29-1.29,2.79-1.93,4.51-1.93Z"/>
  </g>
</svg>