<svg xmlns="http://www.w3.org/2000/svg" viewBox="0 0 465.24 202.3"><defs><style>.cls-1{fill:#fff;}.cls-2{fill:#f05e41;}</style></defs><title>Asset 1</title><g id="Layer_2" data-name="Layer 2"><g id="Layer_1-2" data-name="Layer 1"><polygon class="cls-1" points="148.66 0 0 0 0 33.08 54.51 33.08 54.51 172.22 92.49 172.22 92.49 33.08 148.66 33.08 148.66 0"/><polygon class="cls-1" points="96 172.22 190.68 172.22 190.68 140.1 133.24 140.1 133.24 118.61 182.38 118.61 182.38 88.4 133.24 88.4 133.24 69.46 190.68 69.46 190.68 37.33 96 37.33 96 172.22"/><path class="cls-1" d="M302.38,50.1a51.29,51.29,0,0,0-2.84-11.64A43.65,43.65,0,0,0,280.7,16.33a51.28,51.28,0,0,0-9.82-4.43c-6.77-2.26-13.48-1.8-20.49-1.8h-55V172.22h36.77V103.71h11.26l29.95,68.51h41.23l-33.94-76.8S306.63,83.5,302.38,50.1ZM263.71,65.24c-1.26,2.46-3.34,5.61-6.44,5.61H232.18V42h22.11C265,43.64,268.11,56.63,263.71,65.24Z"/><path class="cls-1" d="M446.14,117.61V21.8H409.43l-.2.46-33,76.33-29-67.21H306.42V143.12l12.87,29.1h24V100.71l23.3,50.45h19.3l23.3-50.45v71.51h36.91v-4.8a24.91,24.91,0,0,1,0-49.81Z"/><polygon points="409.43 21.8 409.23 22.26 409.23 21.8 409.43 21.8"/><path class="cls-2" d="M465.24,142.52a18.66,18.66,0,0,1-18.65,18.66h-.45a18.66,18.66,0,0,1,0-37.3,3.39,3.39,0,0,1,.45,0,18.65,18.65,0,0,1,18.65,18.67"/><polygon class="cls-1" points="57.63 179.4 55.14 179.4 55.14 197.15 56.38 197.15 57.63 197.15 66.54 197.15 66.54 194.78 57.63 194.78 57.63 179.4"/><rect class="cls-1" x="74.02" y="184.48" width="2.49" height="12.67"/><rect class="cls-1" x="74.02" y="179.4" width="2.49" height="2.49"/><path class="cls-1" d="M92.71,189.91a11.68,11.68,0,0,0-2.27-.35h-.31l-.15,0c-.68,0-1.2-.09-1.56-.14a2.14,2.14,0,0,1-.91-.34.9.9,0,0,1-.36-.77,1.47,1.47,0,0,1,.63-1.3,3.41,3.41,0,0,1,1.91-.44,5.59,5.59,0,0,1,1.8.31,8.45,8.45,0,0,1,1.87.91l1.5-1.82a8.83,8.83,0,0,0-1.57-.9,8.42,8.42,0,0,0-1.72-.55,9.45,9.45,0,0,0-1.88-.18,7.34,7.34,0,0,0-2.72.44,3.39,3.39,0,0,0-1.64,1.34,4.18,4.18,0,0,0-.55,2.24,3.26,3.26,0,0,0,.57,2.06,2.8,2.8,0,0,0,1.42,1,9.3,9.3,0,0,0,2.09.36h.19l.21,0h.21a16.74,16.74,0,0,1,1.68.19,2.21,2.21,0,0,1,1,.41,1.06,1.06,0,0,1,.41.91,1.51,1.51,0,0,1-.74,1.37,4.23,4.23,0,0,1-2.22.46,5.55,5.55,0,0,1-2-.39,8.38,8.38,0,0,1-2-1.17l-1.48,1.82a7.46,7.46,0,0,0,1.58,1.1,7.88,7.88,0,0,0,1.84.66l1,.22H89.6a8.11,8.11,0,0,0,3-.46,3.56,3.56,0,0,0,1.77-1.34,4.09,4.09,0,0,0,.58-2.27,3.61,3.61,0,0,0-.63-2.29A3.11,3.11,0,0,0,92.71,189.91Z"/><path class="cls-1" d="M105.73,180.8h-2.49v3.68h-1.31v2.25h1.31v7.13a3.81,3.81,0,0,0,.72,2.51,2.78,2.78,0,0,0,2.25.84h1.44v-2.36h-1.2a.65.65,0,0,1-.54-.25,1.24,1.24,0,0,1-.18-.72v-7.15h1.92v-2.25h-1.92Z"/><path class="cls-1" d="M123.54,185.09a4.56,4.56,0,0,0-2.71-.79A5.69,5.69,0,0,0,118,185a4.5,4.5,0,0,0-1.82,2,7.47,7.47,0,0,0-.63,3.21v1.43a6.77,6.77,0,0,0,.65,3.08,4.45,4.45,0,0,0,1.9,1.94l1.25.66h1.75a6,6,0,0,0,2.36-.5,6.82,6.82,0,0,0,2.11-1.4l-1.63-1.63a4.48,4.48,0,0,1-1.34.85,3.77,3.77,0,0,1-1.5.31,3.16,3.16,0,0,1-2.35-.84,3.23,3.23,0,0,1-.83-2.31h8V191a9.91,9.91,0,0,0-.59-3.6A5,5,0,0,0,123.54,185.09Zm-5.66,4.73a3.92,3.92,0,0,1,.76-2.35,2.69,2.69,0,0,1,2.19-.92,2.22,2.22,0,0,1,1.85.86,4.21,4.21,0,0,1,.8,2.41Z"/><path class="cls-1" d="M139.93,184.3a3.77,3.77,0,0,0-2.1.62,4.38,4.38,0,0,0-1.27,1.33v-1.77h-2.49v12.67h2.49v-8a2.45,2.45,0,0,1,.66-1.82,2.62,2.62,0,0,1,1.89-.64,2.54,2.54,0,0,1,1.95.73,2.88,2.88,0,0,1,.7,2.08v7.67h2.49v-7.69a5.79,5.79,0,0,0-1.13-3.81A3.93,3.93,0,0,0,139.93,184.3Z"/><polygon class="cls-1" points="152.43 201.21 155.04 198.5 155.04 194.54 152.43 194.54 152.43 201.21"/><path class="cls-1" d="M184.84,189a4.42,4.42,0,0,0,1.81-1.8,5.93,5.93,0,0,0,0-5.38,4.42,4.42,0,0,0-1.81-1.8,5.47,5.47,0,0,0-2.7-.64h-7v17.76h2.49v-7.5h3.7l3.79,7.5H188L184,189.38A5.38,5.38,0,0,0,184.84,189Zm-7.24-7.25h4.65a2.21,2.21,0,0,1,2.1,1.31,3.65,3.65,0,0,1,0,2.9,2.3,2.3,0,0,1-.85,1,2.36,2.36,0,0,1-1.25.34H177.6Z"/><path class="cls-1" d="M203.16,185.09a4.56,4.56,0,0,0-2.71-.79,5.69,5.69,0,0,0-2.88.69,4.45,4.45,0,0,0-1.82,2,7.47,7.47,0,0,0-.63,3.21v1.43a6.64,6.64,0,0,0,.65,3.08,4.45,4.45,0,0,0,1.9,1.94l1.24.66h1.76a6,6,0,0,0,2.36-.5,6.82,6.82,0,0,0,2.11-1.4l-1.64-1.63a4.32,4.32,0,0,1-1.33.85,3.77,3.77,0,0,1-1.5.31,3.14,3.14,0,0,1-2.35-.84,3.23,3.23,0,0,1-.83-2.31h8V191a9.91,9.91,0,0,0-.59-3.6A5,5,0,0,0,203.16,185.09Zm-5.66,4.73a3.85,3.85,0,0,1,.76-2.35,2.69,2.69,0,0,1,2.19-.92,2.24,2.24,0,0,1,1.85.86,4.21,4.21,0,0,1,.8,2.41Z"/><path class="cls-1" d="M221.27,189.91a11.57,11.57,0,0,0-2.26-.35h-.31l-.16,0c-.67,0-1.19-.09-1.56-.14a2.19,2.19,0,0,1-.91-.34.9.9,0,0,1-.36-.77,1.46,1.46,0,0,1,.64-1.3,3.35,3.35,0,0,1,1.9-.44,5.5,5.5,0,0,1,1.8.31,8.51,8.51,0,0,1,1.88.91l1.5-1.82a8.91,8.91,0,0,0-1.58-.9,8.13,8.13,0,0,0-1.71-.55,9.62,9.62,0,0,0-1.89-.18,7.34,7.34,0,0,0-2.72.44,3.39,3.39,0,0,0-1.64,1.34,4.27,4.27,0,0,0-.55,2.24,3.26,3.26,0,0,0,.57,2.06,2.8,2.8,0,0,0,1.42,1,9.3,9.3,0,0,0,2.09.36h.2l.2,0H218a16.65,16.65,0,0,1,1.69.19,2.25,2.25,0,0,1,1,.41,1.05,1.05,0,0,1,.4.91,1.51,1.51,0,0,1-.74,1.37,4.21,4.21,0,0,1-2.21.46,5.6,5.6,0,0,1-2-.39,8.33,8.33,0,0,1-2-1.17l-1.48,1.82a7.4,7.4,0,0,0,1.57,1.1,8.05,8.05,0,0,0,1.84.66l1,.22h1.13a8.18,8.18,0,0,0,3-.46,3.57,3.57,0,0,0,1.76-1.34,4.1,4.1,0,0,0,.59-2.27,3.61,3.61,0,0,0-.64-2.29A3,3,0,0,0,221.27,189.91Z"/><path class="cls-1" d="M239.57,184.9a4.21,4.21,0,0,0-2.3-.6,3.73,3.73,0,0,0-2.06.6,4.37,4.37,0,0,0-1.25,1.28v-1.7h-2.48V202.3H234v-6.78a3.33,3.33,0,0,0,1.13,1.25,3.68,3.68,0,0,0,2.06.57,4.49,4.49,0,0,0,2.37-.61A3.8,3.8,0,0,0,241,195a6.73,6.73,0,0,0,.51-2.76v-2.76a6.89,6.89,0,0,0-.5-2.79A3.78,3.78,0,0,0,239.57,184.9Zm-.53,7.32a3.06,3.06,0,0,1-.67,2.12,2.46,2.46,0,0,1-1.91.75,2.7,2.7,0,0,1-1.35-.31,2,2,0,0,1-.85-.87,3,3,0,0,1-.3-1.4v-3.45a2.87,2.87,0,0,1,.3-1.36,1.91,1.91,0,0,1,.85-.86,2.81,2.81,0,0,1,1.35-.29,2.43,2.43,0,0,1,1.91.76,3.2,3.2,0,0,1,.67,2.17Z"/><path class="cls-1" d="M257.58,184.94a6.53,6.53,0,0,0-5.64,0,4.26,4.26,0,0,0-1.79,1.87,6.52,6.52,0,0,0-.62,2.95v2.06a6.63,6.63,0,0,0,.62,3,4.26,4.26,0,0,0,1.79,1.89,6.44,6.44,0,0,0,5.64,0,4.37,4.37,0,0,0,1.79-1.87,6.57,6.57,0,0,0,.61-3v-2.1a6.52,6.52,0,0,0-.61-2.95A4.32,4.32,0,0,0,257.58,184.94Zm-.09,6.92a3.39,3.39,0,0,1-.71,2.29,2.9,2.9,0,0,1-4,0,3.34,3.34,0,0,1-.72-2.29v-2.1a3.33,3.33,0,0,1,.72-2.29,3,3,0,0,1,4,0,3.37,3.37,0,0,1,.71,2.29Z"/><path class="cls-1" d="M274.21,184.3a3.77,3.77,0,0,0-2.1.62,4.38,4.38,0,0,0-1.27,1.33v-1.77h-2.49v12.67h2.49v-8a2.45,2.45,0,0,1,.66-1.82,2.61,2.61,0,0,1,1.89-.64,2.54,2.54,0,0,1,1.95.73,2.88,2.88,0,0,1,.7,2.08v7.67h2.49v-7.69a5.79,5.79,0,0,0-1.13-3.81A3.93,3.93,0,0,0,274.21,184.3Z"/><path class="cls-1" d="M294.34,186.08a4.18,4.18,0,0,0-1.25-1.23,3.83,3.83,0,0,0-2.06-.59,4.18,4.18,0,0,0-2.3.61,3.76,3.76,0,0,0-1.46,1.76,7.12,7.12,0,0,0-.5,2.8v2.79a6.87,6.87,0,0,0,.51,2.78,3.81,3.81,0,0,0,1.5,1.77,4.44,4.44,0,0,0,2.37.6,3.48,3.48,0,0,0,2.12-.63,3.59,3.59,0,0,0,1.07-1.23v1.64h2.49V179.4h-2.49Zm-.29,7.81a2.11,2.11,0,0,1-.85.9,2.7,2.7,0,0,1-1.35.31,2.44,2.44,0,0,1-1.91-.75,3.08,3.08,0,0,1-.68-2.13v-2.76a3.18,3.18,0,0,1,.68-2.16,2.42,2.42,0,0,1,1.91-.77,2.81,2.81,0,0,1,1.35.3,2,2,0,0,1,.85.87,3.12,3.12,0,0,1,.29,1.38v3.41A3.18,3.18,0,0,1,294.05,193.89Z"/><polygon class="cls-1" points="304.99 201.21 307.6 198.5 307.6 194.54 304.99 194.54 304.99 201.21"/><path class="cls-1" d="M337,188a14.82,14.82,0,0,0-2.7-.78l-.13,0-.14,0-.09,0-.09,0a18.83,18.83,0,0,1-2.15-.51,3.21,3.21,0,0,1-1.3-.78,2,2,0,0,1-.52-1.44h0a2.4,2.4,0,0,1,1-2.06,4.81,4.81,0,0,1,2.83-.72,5.76,5.76,0,0,1,2,.37,8.64,8.64,0,0,1,2,1.11l1.41-2a10.28,10.28,0,0,0-1.76-1,9.5,9.5,0,0,0-1.82-.61,8.38,8.38,0,0,0-1.87-.21,8.55,8.55,0,0,0-3.41.61,4.64,4.64,0,0,0-2.15,1.78,5.05,5.05,0,0,0-.74,2.81h0a4.61,4.61,0,0,0,.79,2.9,4.15,4.15,0,0,0,1.91,1.41,20.84,20.84,0,0,0,2.9.69l.18,0,.08,0h.08a12.51,12.51,0,0,1,2,.48,2.8,2.8,0,0,1,1.24.81,2.13,2.13,0,0,1,.48,1.47h0a2.29,2.29,0,0,1-1.06,2,5.37,5.37,0,0,1-3,.71,7.6,7.6,0,0,1-2.65-.44,7,7,0,0,1-2.23-1.31l-1.55,1.9a9.32,9.32,0,0,0,1.86,1.22,8.86,8.86,0,0,0,2.14.73l1.15.25H333a9.21,9.21,0,0,0,3.52-.61,4.78,4.78,0,0,0,2.23-1.76,4.9,4.9,0,0,0,.77-2.77v0a4.58,4.58,0,0,0-.73-2.75A4.16,4.16,0,0,0,337,188Z"/><path class="cls-1" d="M355.3,192.48a2.42,2.42,0,0,1-.67,1.84,2.63,2.63,0,0,1-1.89.65,2.47,2.47,0,0,1-1.91-.73,2.91,2.91,0,0,1-.68-2.06v-7.7h-2.49v7.7A5.74,5.74,0,0,0,348.8,196a4,4,0,0,0,3.24,1.35,3.59,3.59,0,0,0,2.16-.64,3.67,3.67,0,0,0,1.1-1.23v1.68h2.48V184.48H355.3Z"/><path class="cls-1" d="M369.28,187.47a3,3,0,0,1,2.23-.8,3.65,3.65,0,0,1,2.76,1.27l1.8-1.61a4.2,4.2,0,0,0-1.16-1.1,5.72,5.72,0,0,0-1.57-.69,7,7,0,0,0-1.86-.24,6.28,6.28,0,0,0-3,.64,4.44,4.44,0,0,0-1.88,1.86,6.25,6.25,0,0,0-.64,2.94v2.09a6.37,6.37,0,0,0,.64,3,4.43,4.43,0,0,0,1.88,1.88l1.22.65h1.74a7,7,0,0,0,1.85-.24,5.68,5.68,0,0,0,1.57-.67,4.65,4.65,0,0,0,1.17-1.08l-1.8-1.74a3.61,3.61,0,0,1-1.24,1,3.36,3.36,0,0,1-1.52.36,3,3,0,0,1-2.24-.82,3.22,3.22,0,0,1-.78-2.32v-2.09A3.11,3.11,0,0,1,369.28,187.47Z"/><path class="cls-1" d="M386.53,187.47a3,3,0,0,1,2.24-.8,3.65,3.65,0,0,1,2.75,1.27l1.8-1.61a4.2,4.2,0,0,0-1.16-1.1,5.59,5.59,0,0,0-1.57-.69,7,7,0,0,0-1.86-.24,6.28,6.28,0,0,0-3,.64,4.36,4.36,0,0,0-1.87,1.86,6.14,6.14,0,0,0-.65,2.94v2.09a6.25,6.25,0,0,0,.65,3,4.35,4.35,0,0,0,1.87,1.88l1.23.65h1.73a7,7,0,0,0,1.85-.24,5.68,5.68,0,0,0,1.57-.67,4.65,4.65,0,0,0,1.17-1.08l-1.8-1.74a3.61,3.61,0,0,1-1.24,1,3.35,3.35,0,0,1-1.51.36,2.94,2.94,0,0,1-2.24-.82,3.18,3.18,0,0,1-.79-2.32v-2.09A3.11,3.11,0,0,1,386.53,187.47Z"/><path class="cls-1" d="M408.54,185.09a4.56,4.56,0,0,0-2.71-.79A5.69,5.69,0,0,0,403,185a4.56,4.56,0,0,0-1.82,2,7.47,7.47,0,0,0-.63,3.21v1.43a6.77,6.77,0,0,0,.65,3.08,4.45,4.45,0,0,0,1.9,1.94l1.24.66h1.76a6,6,0,0,0,2.36-.5,6.82,6.82,0,0,0,2.11-1.4l-1.64-1.63a4.32,4.32,0,0,1-1.33.85,3.77,3.77,0,0,1-1.5.31,3.16,3.16,0,0,1-2.35-.84,3.23,3.23,0,0,1-.83-2.31h8V191a9.91,9.91,0,0,0-.59-3.6A5,5,0,0,0,408.54,185.09Zm-5.66,4.73a3.92,3.92,0,0,1,.76-2.35,2.69,2.69,0,0,1,2.19-.92,2.22,2.22,0,0,1,1.85.86,4.21,4.21,0,0,1,.8,2.41Z"/><path class="cls-1" d="M426.75,185.09a4.59,4.59,0,0,0-2.71-.79,5.63,5.63,0,0,0-2.88.69,4.52,4.52,0,0,0-1.83,2,7.47,7.47,0,0,0-.63,3.21v1.43a6.64,6.64,0,0,0,.66,3.08,4.38,4.38,0,0,0,1.89,1.94l1.25.66h1.76a6,6,0,0,0,2.35-.5,6.7,6.7,0,0,0,2.11-1.4l-1.63-1.63a4.44,4.44,0,0,1-1.33.85,3.84,3.84,0,0,1-1.5.31,3.16,3.16,0,0,1-2.36-.84,3.27,3.27,0,0,1-.82-2.31h8V191a9.7,9.7,0,0,0-.59-3.6A4.91,4.91,0,0,0,426.75,185.09Zm-5.66,4.73a3.79,3.79,0,0,1,.76-2.35,2.67,2.67,0,0,1,2.19-.92,2.24,2.24,0,0,1,1.85.86,4.28,4.28,0,0,1,.8,2.41Z"/><path class="cls-1" d="M444.47,179.4v6.68a4.07,4.07,0,0,0-1.25-1.23,3.79,3.79,0,0,0-2.05-.59,4.19,4.19,0,0,0-2.31.61,3.8,3.8,0,0,0-1.45,1.76,6.94,6.94,0,0,0-.5,2.8v2.79a6.87,6.87,0,0,0,.51,2.78,3.79,3.79,0,0,0,1.49,1.77,4.5,4.5,0,0,0,2.38.6,3.5,3.5,0,0,0,2.12-.63,3.55,3.55,0,0,0,1.06-1.23v1.64H447V179.4Zm-.29,14.49a2.06,2.06,0,0,1-.85.9,2.7,2.7,0,0,1-1.35.31,2.44,2.44,0,0,1-1.91-.75,3.07,3.07,0,0,1-.67-2.13v-2.76a3.17,3.17,0,0,1,.67-2.16,2.42,2.42,0,0,1,1.91-.77,2.81,2.81,0,0,1,1.35.3,2,2,0,0,1,.85.87,3,3,0,0,1,.29,1.38v3.41A3,3,0,0,1,444.18,193.89Z"/></g></g></svg>